<svg data-v-0dd9719b="" version="1.0" xmlns="http://www.w3.org/2000/svg" xmlns:xlink="http://www.w3.org/1999/xlink" width="100%" height="100%" viewBox="0 0 340.000000 250.000000" preserveAspectRatio="xMidYMid meet" color-interpolation-filters="sRGB" style="margin: auto;"> <rect data-v-0dd9719b="" x="0" y="0" width="100%" height="100%" fill="#fff" fill-opacity="1" class="background"></rect> <rect data-v-0dd9719b="" x="0" y="0" width="100%" height="100%" fill="url(#watermark)" fill-opacity="1" class="watermarklayer"></rect> <g data-v-0dd9719b="" fill="#333333" class="icon-text-wrapper icon-svg-group iconsvg" transform="translate(78.0999984741211,96.79390716552734)"><g class="iconsvg-imagesvg" transform="translate(0,0)"><g><rect fill="#333333" fill-opacity="0" stroke-width="2" x="0" y="0" width="60" height="56.4121850319669" class="image-rect"></rect> <svg x="0" y="0" width="60" height="56.4121850319669" filtersec="colorsb9299171792" class="image-svg-svg primary" style="overflow: visible;"><svg xmlns="http://www.w3.org/2000/svg" viewBox="0 0 106.36000061035156 100"><g><g><path fill="#02035e" d="M31.46 8.31L0 0v100l31.46-8.31 11.97-3.17V11.48L31.46 8.31z"></path><path fill="#00b0d8" opacity=".8" d="M62.93 8.31L31.46 0v100l31.47-8.31 11.96-3.17V11.48L62.93 8.31z"></path><path fill="#00b0d8" opacity=".5" d="M62.93 0v100l43.43-11.48V11.48L62.93 0z"></path></g></g></svg></svg> <!----></g></g> <g transform="translate(67,5.711093902587891)"><g data-gra="path-name" fill-rule="" class="tp-name iconsvg-namesvg"><g transform="scale(1)"><g><path d="M21.58 7.28L21.58 7.28Q18.27 7.28 15.31 6.21 12.35 5.13 10.14 3.28 7.93 1.43 6.66-1.07 5.4-3.58 5.4-6.44L5.4-6.44 5.4-32.18 3.71-32.18 3.71-37.31 10.53-37.31 10.53-6.44Q10.53-4.68 11.41-3.09 12.29-1.5 13.78-0.33 15.28 0.84 17.29 1.53 19.3 2.21 21.58 2.21L21.58 2.21Q23.86 2.21 25.87 1.53 27.89 0.84 29.38-0.33 30.88-1.5 31.75-3.09 32.63-4.68 32.63-6.44L32.63-6.44 32.63-37.38 37.7-37.38 37.7-6.44Q37.7-3.58 36.43-1.07 35.16 1.43 32.99 3.28 30.81 5.13 27.85 6.21 24.89 7.28 21.58 7.28ZM61.23-8.58L61.23-8.58 51.35-8.58 51.35 7.21 46.28 7.21 46.28-32.44 44.59-32.44 44.59-37.51 61.23-37.51Q64.03-37.51 66.59-36.34 69.16-35.16 71.11-33.18 73.06-31.2 74.23-28.57 75.4-25.94 75.4-23.07L75.4-23.07Q75.4-20.15 74.23-17.55 73.06-14.95 71.11-12.94 69.16-10.92 66.59-9.75 64.03-8.58 61.23-8.58ZM51.35-13.71L61.23-13.71Q62.86-13.71 64.45-14.43 66.04-15.15 67.34-16.38 68.64-17.62 69.45-19.34 70.27-21.06 70.27-23.07L70.27-23.07Q70.27-25.09 69.45-26.78 68.64-28.47 67.34-29.74 66.04-31.01 64.45-31.72 62.86-32.44 61.23-32.44L61.23-32.44 51.35-32.44 51.35-13.71ZM120.51-37.25L120.51 7.48 115.38 7.48 115.38-32.11 115.05-32.11 104.78-5.46 100.23-5.46 90.03-32.11 89.64-32.11 89.64 7.48 84.56 7.48 84.56-32.11 83.14-32.11 83.14-37.25 93.53-37.25 102.5-13.71 111.54-37.25 120.51-37.25Z" transform="translate(-3.7100000381469727, 37.5099983215332)"></path></g> <!----> <!----> <!----> <!----> <!----> <!----> <!----></g></g> <!----></g></g><defs v-gra="od"></defs></svg>